ffmpeg started on 2025-06-07 at 17:16:08
Report written to "D:\Convert\FFMetrics\reports\psnr_report-6.txt"
Log level: 32
Command line:
ffmpeg -hide_banner -nostdin -i "G:\\\xc0\xed\xe8\xec\xe5\\\xce\xed\xe3\xee\xe8\xed\xe3\xe8\\!_36_\xce\xf1\xe5\xed\xfc_2024\\DreamCast\\\xdd\xe9, \xd2\xee\xec\xe1\xee!\\\xd2\xc2-1\\[DC] Ooi! Tonbo - 07_Telegram_HEVC.mkv" -i "G:\\\xc0\xed\xe8\xec\xe5\\\xce\xed\xe3\xee\xe8\xed\xe3\xe8\\!_36_\xce\xf1\xe5\xed\xfc_2024\\DreamCast\\\xdd\xe9, \xd2\xee\xec\xe1\xee!\\\xd2\xc2-1\\[DC] Ooi! Tonbo - 07_Telegram.mp4" -lavfi "[0:v]settb=AVTB,setpts=PTS-STARTPTS,format=pix_fmts=yuv420p10,fps=24000/1001,scale=1920:1080:flags=bicubic[main];[1:v]settb=AVTB,setpts=PTS-STARTPTS,format=pix_fmts=yuv420p,fps=24000/1001,scale=1920:1080:flags=bicubic[ref];[main][ref]psnr=eof_action=endall:stats_file='D\\:/Convert/FFMetrics/logs/psnr_logfile-6.txt'" -f null -
Input #0, matroska,webm, from 'G:\Аниме\Онгоинги\!_36_Осень_2024\DreamCast\Эй, Томбо!\ТВ-1\[DC] Ooi! Tonbo - 07_Telegram_HEVC.mkv':
  Metadata:
    COMPATIBLE_BRANDS: isomiso2avc1mp41
    MAJOR_BRAND     : isom
    MINOR_VERSION   : 512
    ENCODER         : Lavf61.7.100
  Duration: 00:24:20.69, start: -0.021000, bitrate: 1398 kb/s
  Stream #0:0: Video: hevc (Main 10), yuv420p10le(tv, bt709, progressive), 1920x1080 [SAR 1:1 DAR 16:9], 23.98 fps, 23.98 tbr, 1k tbn (default)
      Metadata:
        HANDLER_NAME    : VideoHandler
        VENDOR_ID       : [0][0][0][0]
        ENCODER         : Lavc61.19.100 libx265
        BPS             : 1202976
        DURATION        : 00:24:19.541708333
        NUMBER_OF_FRAMES: 34994
        NUMBER_OF_BYTES : 219474272
        _STATISTICS_WRITING_APP: mkvpropedit v66.0.0 ('Josie') 64-bit
        _STATISTICS_WRITING_DATE_UTC: 2025-06-05 14:30:15
        _STATISTICS_TAGS: BPS DURATION NUMBER_OF_FRAMES NUMBER_OF_BYTES
  Stream #0:1: Audio: aac (LC), 48000 Hz, stereo, fltp (default)
      Metadata:
        HANDLER_NAME    : SoundHandler
        VENDOR_ID       : [0][0][0][0]
        ENCODER         : Lavc61.19.100 aac
        BPS             : 192873
        DURATION        : 00:24:20.693000000
        NUMBER_OF_FRAMES: 68471
        NUMBER_OF_BYTES : 35216143
        _STATISTICS_WRITING_APP: mkvpropedit v66.0.0 ('Josie') 64-bit
        _STATISTICS_WRITING_DATE_UTC: 2025-06-05 14:30:15
        _STATISTICS_TAGS: BPS DURATION NUMBER_OF_FRAMES NUMBER_OF_BYTES
Input #1, mov,mp4,m4a,3gp,3g2,mj2, from 'G:\Аниме\Онгоинги\!_36_Осень_2024\DreamCast\Эй, Томбо!\ТВ-1\[DC] Ooi! Tonbo - 07_Telegram.mp4':
  Metadata:
    major_brand     : isom
    minor_version   : 512
    compatible_brands: isomiso2avc1mp41
    encoder         : Lavf60.16.100
  Duration: 00:24:20.67, start: 0.000000, bitrate: 3618 kb/s
  Stream #1:0[0x1](und): Video: h264 (High) (avc1 / 0x31637661), yuv420p(tv, bt709, progressive), 1920x1080 [SAR 1:1 DAR 16:9], 3472 kb/s, 23.98 fps, 23.98 tbr, 24k tbn (default)
      Metadata:
        handler_name    : VideoHandler
        vendor_id       : [0][0][0][0]
        encoder         : Lavc60.31.102 h264_qsv
  Stream #1:1[0x2](und): Audio: aac (HE-AACv2) (mp4a / 0x6134706D), 48000 Hz, stereo, fltp, 144 kb/s (default)
      Metadata:
        handler_name    : SoundHandler
        vendor_id       : [0][0][0][0]
Stream mapping:
  Stream #0:0 (hevc) -> settb:default
  Stream #1:0 (h264) -> settb:default
  psnr:default -> Stream #0:0 (wrapped_avframe)
  Stream #0:1 -> #0:1 (aac (native) -> pcm_s16le (native))
Output #0, null, to 'pipe:':
  Metadata:
    COMPATIBLE_BRANDS: isomiso2avc1mp41
    MAJOR_BRAND     : isom
    MINOR_VERSION   : 512
    encoder         : Lavf61.7.100
  Stream #0:0: Video: wrapped_avframe, yuv420p10le(tv, bt709, progressive), 1920x1080 [SAR 1:1 DAR 16:9], q=2-31, 200 kb/s, 23.98 fps, 23.98 tbn
      Metadata:
        encoder         : Lavc61.19.100 wrapped_avframe
  Stream #0:1: Audio: pcm_s16le, 48000 Hz, stereo, s16, 1536 kb/s (default)
      Metadata:
        HANDLER_NAME    : SoundHandler
        VENDOR_ID       : [0][0][0][0]
        _STATISTICS_TAGS: BPS DURATION NUMBER_OF_FRAMES NUMBER_OF_BYTES
        BPS             : 192873
        DURATION        : 00:24:20.693000000
        NUMBER_OF_FRAMES: 68471
        NUMBER_OF_BYTES : 35216143
        _STATISTICS_WRITING_APP: mkvpropedit v66.0.0 ('Josie') 64-bit
        _STATISTICS_WRITING_DATE_UTC: 2025-06-05 14:30:15
        encoder         : Lavc61.19.100 pcm_s16le
frame=  166 fps=0.0 q=-0.0 size=N/A time=00:00:06.92 bitrate=N/A speed=13.5x    frame=  400 fps=386 q=-0.0 size=N/A time=00:00:16.68 bitrate=N/A speed=16.1x    frame=  592 fps=382 q=-0.0 size=N/A time=00:00:24.69 bitrate=N/A speed=  16x    frame=  813 fps=395 q=-0.0 size=N/A time=00:00:33.90 bitrate=N/A speed=16.5x    frame= 1046 fps=405 q=-0.0 size=N/A time=00:00:43.62 bitrate=N/A speed=16.9x    frame= 1262 fps=408 q=-0.0 size=N/A time=00:00:52.63 bitrate=N/A speed=  17x    frame= 1475 fps=409 q=-0.0 size=N/A time=00:01:01.51 bitrate=N/A speed=17.1x    frame= 1701 fps=412 q=-0.0 size=N/A time=00:01:10.94 bitrate=N/A speed=17.2x    frame= 1920 fps=414 q=-0.0 size=N/A time=00:01:20.08 bitrate=N/A speed=17.2x    frame= 2134 fps=414 q=-0.0 size=N/A time=00:01:29.00 bitrate=N/A speed=17.3x    frame= 2359 fps=415 q=-0.0 size=N/A time=00:01:38.38 bitrate=N/A speed=17.3x    frame= 2591 fps=419 q=-0.0 size=N/A time=00:01:48.06 bitrate=N/A speed=17.5x    frame= 2815 fps=420 q=-0.0 size=N/A time=00:01:57.40 bitrate=N/A speed=17.5x    frame= 3080 fps=426 q=-0.0 size=N/A time=00:02:08.46 bitrate=N/A speed=17.8x    frame= 3318 fps=429 q=-0.0 size=N/A time=00:02:18.38 bitrate=N/A speed=17.9x    frame= 3569 fps=433 q=-0.0 size=N/A time=00:02:28.85 bitrate=N/A speed=18.1x    frame= 3767 fps=429 q=-0.0 size=N/A time=00:02:37.11 bitrate=N/A speed=17.9x    frame= 3994 fps=430 q=-0.0 size=N/A time=00:02:46.58 bitrate=N/A speed=17.9x    frame= 4269 fps=435 q=-0.0 size=N/A time=00:02:58.05 bitrate=N/A speed=18.2x    frame= 4539 fps=440 q=-0.0 size=N/A time=00:03:09.31 bitrate=N/A speed=18.4x    frame= 4792 fps=443 q=-0.0 size=N/A time=00:03:19.86 bitrate=N/A speed=18.5x    frame= 5064 fps=446 q=-0.0 size=N/A time=00:03:31.21 bitrate=N/A speed=18.6x    frame= 5325 fps=449 q=-0.0 size=N/A time=00:03:42.09 bitrate=N/A speed=18.7x    frame= 5524 fps=446 q=-0.0 size=N/A time=00:03:50.39 bitrate=N/A speed=18.6x    frame= 5795 fps=449 q=-0.0 size=N/A time=00:04:01.69 bitrate=N/A speed=18.7x    frame= 6051 fps=451 q=-0.0 size=N/A time=00:04:12.37 bitrate=N/A speed=18.8x    frame= 6330 fps=455 q=-0.0 size=N/A time=00:04:24.01 bitrate=N/A speed=  19x    frame= 6593 fps=457 q=-0.0 size=N/A time=00:04:34.98 bitrate=N/A speed=  19x    frame= 6807 fps=455 q=-0.0 size=N/A time=00:04:43.90 bitrate=N/A speed=  19x    frame= 7016 fps=453 q=-0.0 size=N/A time=00:04:52.62 bitrate=N/A speed=18.9x    frame= 7252 fps=454 q=-0.0 size=N/A time=00:05:02.46 bitrate=N/A speed=18.9x    frame= 7523 fps=456 q=-0.0 size=N/A time=00:05:13.77 bitrate=N/A speed=  19x    frame= 7747 fps=455 q=-0.0 size=N/A time=00:05:23.11 bitrate=N/A speed=  19x    frame= 7988 fps=456 q=-0.0 size=N/A time=00:05:33.16 bitrate=N/A speed=  19x    frame= 8271 fps=458 q=-0.0 size=N/A time=00:05:44.96 bitrate=N/A speed=19.1x    frame= 8539 fps=460 q=-0.0 size=N/A time=00:05:56.14 bitrate=N/A speed=19.2x    frame= 8790 fps=461 q=-0.0 size=N/A time=00:06:06.61 bitrate=N/A speed=19.2x    frame= 9041 fps=461 q=-0.0 size=N/A time=00:06:17.08 bitrate=N/A speed=19.2x    frame= 9270 fps=461 q=-0.0 size=N/A time=00:06:26.63 bitrate=N/A speed=19.2x    frame= 9489 fps=460 q=-0.0 size=N/A time=00:06:35.77 bitrate=N/A speed=19.2x    frame= 9743 fps=461 q=-0.0 size=N/A time=00:06:46.36 bitrate=N/A speed=19.2x    frame=10020 fps=463 q=-0.0 size=N/A time=00:06:57.91 bitrate=N/A speed=19.3x    frame=10278 fps=463 q=-0.0 size=N/A time=00:07:08.67 bitrate=N/A speed=19.3x    frame=10465 fps=461 q=-0.0 size=N/A time=00:07:16.47 bitrate=N/A speed=19.2x    frame=10719 fps=462 q=-0.0 size=N/A time=00:07:27.07 bitrate=N/A speed=19.3x    frame=10983 fps=463 q=-0.0 size=N/A time=00:07:38.08 bitrate=N/A speed=19.3x    frame=11191 fps=462 q=-0.0 size=N/A time=00:07:46.75 bitrate=N/A speed=19.3x    frame=11438 fps=462 q=-0.0 size=N/A time=00:07:57.05 bitrate=N/A speed=19.3x    frame=11691 fps=463 q=-0.0 size=N/A time=00:08:07.61 bitrate=N/A speed=19.3x    frame=11936 fps=463 q=-0.0 size=N/A time=00:08:17.83 bitrate=N/A speed=19.3x    frame=12164 fps=462 q=-0.0 size=N/A time=00:08:27.34 bitrate=N/A speed=19.3x    frame=12382 fps=462 q=-0.0 size=N/A time=00:08:36.43 bitrate=N/A speed=19.3x    frame=12625 fps=462 q=-0.0 size=N/A time=00:08:46.56 bitrate=N/A speed=19.3x    frame=12860 fps=462 q=-0.0 size=N/A time=00:08:56.36 bitrate=N/A speed=19.3x    frame=13089 fps=461 q=-0.0 size=N/A time=00:09:05.92 bitrate=N/A speed=19.2x    frame=13314 fps=461 q=-0.0 size=N/A time=00:09:15.30 bitrate=N/A speed=19.2x    frame=13587 fps=462 q=-0.0 size=N/A time=00:09:26.69 bitrate=N/A speed=19.3x    frame=13840 fps=463 q=-0.0 size=N/A time=00:09:37.24 bitrate=N/A speed=19.3x    frame=14086 fps=463 q=-0.0 size=N/A time=00:09:47.50 bitrate=N/A speed=19.3x    frame=14319 fps=463 q=-0.0 size=N/A time=00:09:57.22 bitrate=N/A speed=19.3x    frame=14554 fps=463 q=-0.0 size=N/A time=00:10:07.02 bitrate=N/A speed=19.3x    frame=14802 fps=463 q=-0.0 size=N/A time=00:10:17.36 bitrate=N/A speed=19.3x    frame=15048 fps=463 q=-0.0 size=N/A time=00:10:27.62 bitrate=N/A speed=19.3x    frame=15255 fps=462 q=-0.0 size=N/A time=00:10:36.26 bitrate=N/A speed=19.3x    frame=15499 fps=462 q=-0.0 size=N/A time=00:10:46.43 bitrate=N/A speed=19.3x    frame=15732 fps=462 q=-0.0 size=N/A time=00:10:56.15 bitrate=N/A speed=19.3x    frame=16014 fps=464 q=-0.0 size=N/A time=00:11:07.91 bitrate=N/A speed=19.3x    frame=16252 fps=464 q=-0.0 size=N/A time=00:11:17.84 bitrate=N/A speed=19.3x    frame=16497 fps=464 q=-0.0 size=N/A time=00:11:28.06 bitrate=N/A speed=19.3x    frame=16742 fps=464 q=-0.0 size=N/A time=00:11:38.28 bitrate=N/A speed=19.3x    frame=16992 fps=464 q=-0.0 size=N/A time=00:11:48.70 bitrate=N/A speed=19.4x    frame=17222 fps=464 q=-0.0 size=N/A time=00:11:58.30 bitrate=N/A speed=19.3x    frame=17440 fps=463 q=-0.0 size=N/A time=00:12:07.39 bitrate=N/A speed=19.3x    frame=17698 fps=464 q=-0.0 size=N/A time=00:12:18.15 bitrate=N/A speed=19.3x    frame=17901 fps=463 q=-0.0 size=N/A time=00:12:26.62 bitrate=N/A speed=19.3x    frame=18123 fps=462 q=-0.0 size=N/A time=00:12:35.88 bitrate=N/A speed=19.3x    frame=18314 fps=461 q=-0.0 size=N/A time=00:12:43.84 bitrate=N/A speed=19.2x    frame=18578 fps=462 q=-0.0 size=N/A time=00:12:54.85 bitrate=N/A speed=19.3x    frame=18841 fps=462 q=-0.0 size=N/A time=00:13:05.82 bitrate=N/A speed=19.3x    frame=19068 fps=462 q=-0.0 size=N/A time=00:13:15.29 bitrate=N/A speed=19.3x    frame=19260 fps=461 q=-0.0 size=N/A time=00:13:23.30 bitrate=N/A speed=19.2x    frame=19502 fps=461 q=-0.0 size=N/A time=00:13:33.39 bitrate=N/A speed=19.2x    frame=19711 fps=460 q=-0.0 size=N/A time=00:13:42.11 bitrate=N/A speed=19.2x    frame=19947 fps=460 q=-0.0 size=N/A time=00:13:51.95 bitrate=N/A speed=19.2x    frame=20183 fps=460 q=-0.0 size=N/A time=00:14:01.79 bitrate=N/A speed=19.2x    frame=20422 fps=460 q=-0.0 size=N/A time=00:14:11.76 bitrate=N/A speed=19.2x    frame=20678 fps=461 q=-0.0 size=N/A time=00:14:22.44 bitrate=N/A speed=19.2x    frame=20923 fps=461 q=-0.0 size=N/A time=00:14:32.66 bitrate=N/A speed=19.2x    frame=21168 fps=461 q=-0.0 size=N/A time=00:14:42.88 bitrate=N/A speed=19.2x    frame=21428 fps=461 q=-0.0 size=N/A time=00:14:53.72 bitrate=N/A speed=19.2x    frame=21643 fps=461 q=-0.0 size=N/A time=00:15:02.69 bitrate=N/A speed=19.2x    frame=21908 fps=461 q=-0.0 size=N/A time=00:15:13.74 bitrate=N/A speed=19.2x    frame=22112 fps=461 q=-0.0 size=N/A time=00:15:22.25 bitrate=N/A speed=19.2x    frame=22308 fps=460 q=-0.0 size=N/A time=00:15:30.42 bitrate=N/A speed=19.2x    frame=22570 fps=460 q=-0.0 size=N/A time=00:15:41.35 bitrate=N/A speed=19.2x    frame=22816 fps=461 q=-0.0 size=N/A time=00:15:51.61 bitrate=N/A speed=19.2x    frame=23096 fps=461 q=-0.0 size=N/A time=00:16:03.29 bitrate=N/A speed=19.2x    frame=23311 fps=461 q=-0.0 size=N/A time=00:16:12.26 bitrate=N/A speed=19.2x    frame=23562 fps=461 q=-0.0 size=N/A time=00:16:22.73 bitrate=N/A speed=19.2x    frame=23827 fps=462 q=-0.0 size=N/A time=00:16:33.78 bitrate=N/A speed=19.3x    frame=24084 fps=462 q=-0.0 size=N/A time=00:16:44.50 bitrate=N/A speed=19.3x    frame=24282 fps=461 q=-0.0 size=N/A time=00:16:52.76 bitrate=N/A speed=19.2x    frame=24517 fps=461 q=-0.0 size=N/A time=00:17:02.56 bitrate=N/A speed=19.2x    frame=24728 fps=461 q=-0.0 size=N/A time=00:17:11.36 bitrate=N/A speed=19.2x    frame=24964 fps=461 q=-0.0 size=N/A time=00:17:21.20 bitrate=N/A speed=19.2x    frame=25221 fps=461 q=-0.0 size=N/A time=00:17:31.96 bitrate=N/A speed=19.2x    frame=25462 fps=461 q=-0.0 size=N/A time=00:17:41.97 bitrate=N/A speed=19.2x    frame=25724 fps=462 q=-0.0 size=N/A time=00:17:52.90 bitrate=N/A speed=19.3x    frame=25972 fps=462 q=-0.0 size=N/A time=00:18:03.24 bitrate=N/A speed=19.3x    frame=26199 fps=462 q=-0.0 size=N/A time=00:18:12.71 bitrate=N/A speed=19.3x    frame=26408 fps=461 q=-0.0 size=N/A time=00:18:21.43 bitrate=N/A speed=19.2x    frame=26638 fps=461 q=-0.0 size=N/A time=00:18:31.02 bitrate=N/A speed=19.2x    frame=26885 fps=461 q=-0.0 size=N/A time=00:18:41.32 bitrate=N/A speed=19.2x    frame=27103 fps=461 q=-0.0 size=N/A time=00:18:50.42 bitrate=N/A speed=19.2x    frame=27332 fps=461 q=-0.0 size=N/A time=00:18:59.97 bitrate=N/A speed=19.2x    frame=27554 fps=460 q=-0.0 size=N/A time=00:19:09.23 bitrate=N/A speed=19.2x    frame=27809 fps=461 q=-0.0 size=N/A time=00:19:19.86 bitrate=N/A speed=19.2x    frame=28046 fps=461 q=-0.0 size=N/A time=00:19:29.75 bitrate=N/A speed=19.2x    frame=28273 fps=461 q=-0.0 size=N/A time=00:19:39.21 bitrate=N/A speed=19.2x    frame=28514 fps=461 q=-0.0 size=N/A time=00:19:49.27 bitrate=N/A speed=19.2x    frame=28788 fps=461 q=-0.0 size=N/A time=00:20:00.69 bitrate=N/A speed=19.2x    frame=29006 fps=461 q=-0.0 size=N/A time=00:20:09.79 bitrate=N/A speed=19.2x    frame=29235 fps=461 q=-0.0 size=N/A time=00:20:19.34 bitrate=N/A speed=19.2x    frame=29467 fps=461 q=-0.0 size=N/A time=00:20:29.01 bitrate=N/A speed=19.2x    frame=29702 fps=461 q=-0.0 size=N/A time=00:20:38.82 bitrate=N/A speed=19.2x    frame=29946 fps=461 q=-0.0 size=N/A time=00:20:48.99 bitrate=N/A speed=19.2x    frame=30195 fps=461 q=-0.0 size=N/A time=00:20:59.38 bitrate=N/A speed=19.2x    frame=30426 fps=461 q=-0.0 size=N/A time=00:21:09.01 bitrate=N/A speed=19.2x    frame=30682 fps=461 q=-0.0 size=N/A time=00:21:19.69 bitrate=N/A speed=19.2x    frame=30941 fps=461 q=-0.0 size=N/A time=00:21:30.49 bitrate=N/A speed=19.2x    frame=31218 fps=462 q=-0.0 size=N/A time=00:21:42.05 bitrate=N/A speed=19.3x    frame=31502 fps=462 q=-0.0 size=N/A time=00:21:53.89 bitrate=N/A speed=19.3x    frame=31768 fps=463 q=-0.0 size=N/A time=00:22:04.99 bitrate=N/A speed=19.3x    frame=32019 fps=463 q=-0.0 size=N/A time=00:22:15.45 bitrate=N/A speed=19.3x    frame=32268 fps=463 q=-0.0 size=N/A time=00:22:25.84 bitrate=N/A speed=19.3x    frame=32495 fps=463 q=-0.0 size=N/A time=00:22:35.31 bitrate=N/A speed=19.3x    frame=32705 fps=463 q=-0.0 size=N/A time=00:22:44.07 bitrate=N/A speed=19.3x    frame=32926 fps=462 q=-0.0 size=N/A time=00:22:53.28 bitrate=N/A speed=19.3x    frame=33150 fps=462 q=-0.0 size=N/A time=00:23:02.63 bitrate=N/A speed=19.3x    frame=33335 fps=461 q=-0.0 size=N/A time=00:23:10.34 bitrate=N/A speed=19.2x    frame=33566 fps=461 q=-0.0 size=N/A time=00:23:19.98 bitrate=N/A speed=19.2x    frame=33781 fps=461 q=-0.0 size=N/A time=00:23:28.94 bitrate=N/A speed=19.2x    frame=34006 fps=461 q=-0.0 size=N/A time=00:23:38.33 bitrate=N/A speed=19.2x    frame=34232 fps=461 q=-0.0 size=N/A time=00:23:47.75 bitrate=N/A speed=19.2x    frame=34449 fps=460 q=-0.0 size=N/A time=00:23:56.81 bitrate=N/A speed=19.2x    frame=34644 fps=460 q=-0.0 size=N/A time=00:24:04.94 bitrate=N/A speed=19.2x    frame=34928 fps=460 q=-0.0 size=N/A time=00:24:16.78 bitrate=N/A speed=19.2x    [Parsed_psnr_10 @ 000002aa997a7480] PSNR y:48.221494 u:49.608495 v:50.145019 average:48.704255 min:39.928287 max:inf
[out#0/null @ 000002aa97554200] video:15036KiB audio:273884KiB subtitle:0KiB other streams:0KiB global headers:0KiB muxing overhead: unknown
frame=34994 fps=461 q=-0.0 Lsize=N/A time=00:24:19.54 bitrate=N/A speed=19.2x    
